<svg xmlns="http://www.w3.org/2000/svg" viewBox="0 0 160 160" width="160" height="160">
  <defs>
    <linearGradient id="bg" x1="0" y1="0" x2="1" y2="1">
      <stop offset="0%" stop-color="#FF8FAB"/>
      <stop offset="100%" stop-color="#7B9CF4"/>
    </linearGradient>
  </defs>
  <rect width="160" height="160" rx="36" fill="url(#bg)"/>
  <path
    d="M 110,54 C 96,28 68,20 44,30 C 20,40 14,66 28,86 C 38,100 56,104 72,108 C 88,112 106,120 112,136"
    fill="none" stroke="white" stroke-width="13" stroke-linecap="round" stroke-linejoin="round"
  />
  <path
    d="M 60,34 C 60,24 74,20 84,26 C 94,32 96,44 88,54 C 82,62 68,64 62,72 C 54,82 54,96 62,106 C 70,116 84,120 96,116"
    fill="none" stroke="rgba(255,255,255,0.45)" stroke-width="10" stroke-linecap="round" stroke-linejoin="round"
  />
</svg>
